# xmcd
#
# Track frame offsets: 
#        150
#        17079
#        41028
#        59322
#        85986
#        111908
#        130022
#        149629
#        168913
#        184740
#        207452
#        222499
#        241821
#        272775
#
# Disc length: 4001 seconds
#
# Revision: 0
# Processed by: cddbd v1.5.2PL0 Copyright (c) Steve Scherf et al.
# Submitted via: ExactAudioCopy v0.95b4
#
DISCID=d30f9f0e
DTITLE=Eugene Chadbourne - Country Boobs (Live At The French Chadfest 
DTITLE=2006)
DYEAR=2007
DGENRE=Country
TTITLE0=Cowboy Girl
TTITLE1=Condoleeza
TTITLE2=Saddamn Me
TTITLE3=Hello In There
TTITLE4=Time After Time
TTITLE5=Jackson
TTITLE6=Some Velvet Morning
TTITLE7=We Don't Need The Men
TTITLE8=Piss Up A Rope
TTITLE9=White Wedding
TTITLE10=She Fainted At Bonaroo
TTITLE11=Danger!
TTITLE12=Snow (Hey Oh)
TTITLE13=Feel Good Music 4 Fucked
EXTD=
EXTT0=
EXTT1=
EXTT2=
EXTT3=
EXTT4=
EXTT5=
EXTT6=
EXTT7=
EXTT8=
EXTT9=
EXTT10=
EXTT11=
EXTT12=
EXTT13=
PLAYORDER=
